<?xml version="1.0" encoding="utf-8"?>
<!-- Svg Vector Icons : http://www.onlinewebfonts.com/icon -->
<!DOCTYPE svg PUBLIC "-//W3C//DTD SVG 1.1//EN" "http://www.w3.org/Graphics/SVG/1.1/DTD/svg11.dtd">
<svg version="1.1" xmlns="http://www.w3.org/2000/svg" xmlns:xlink="http://www.w3.org/1999/xlink" x="0px" y="0px" viewBox="0 0 1000 1000" enable-background="new 0 0 1000 1000" xml:space="preserve">
<metadata> Svg Vector Icons : http://www.onlinewebfonts.com/icon </metadata>
<g><path d="M978,920.4L847.4,789.8l-0.3,0.3L706.7,649.7l-59.3-1c-1.1,1.2-2.2,2.4-3.1,3.6c-58.7,56.6-138.5,91.4-226.4,91.4c-180.2,0-326.3-146-326.3-326c0-180.1,146.1-326,326.3-326s326.2,146,326.2,326c0,29.9-4,58.9-11.6,86.4c-4.3,5.1-7.6,11.3-9.5,18.3l-0.7,4.2c-6.5,24.6,7.6,49.7,31.6,56c16.3,4.3,32.9-1.2,43.9-13l0.3,0.3c0.2-0.4,0.3-0.8,0.5-1.2c4.7-5.3,8.3-11.8,10.3-19.2l0.7-4.2c1.2-4.5,1.7-8.9,1.6-13.3c10.4-36.1,16.1-74.2,16.1-113.6c0-225.5-183-408.4-408.6-408.4C193,10,10,192.8,10,418.4c0,225.5,183,408.4,408.6,408.4c98,0,187.9-34.5,258.3-91.9l243.4,243.2c15.9,15.9,41.8,15.9,57.7,0C994,962.1,994,936.3,978,920.4z"/></g>
</svg>